<svg xmlns="http://www.w3.org/2000/svg" viewBox="0 0 482.58 512"><defs><style>.cls-1{fill:#888c97}</style></defs><g id="Layer_2" data-name="Layer 2"><g id="Layer_1-2" data-name="Layer 1"><path d="M481.2,166.6c3.3,8.6.5,18.3-6.3,24.6l-43.3,39.4a190.6,190.6,0,0,1,0,50.8l43.3,39.4c6.8,6.3,9.6,16,6.3,24.6a253.86,253.86,0,0,1-15.7,34.3l-4.7,8.1a263.48,263.48,0,0,1-22.1,31.3,22.87,22.87,0,0,1-24.5,6.8l-55.7-17.8c-13.4,10.3-29.1,18.9-44,25.5L302,490.7c-2,9-9,15.4-18.2,17.8a261.31,261.31,0,0,1-43.4,3.5,255.76,255.76,0,0,1-41.6-3.5c-9.2-2.4-16.2-8.8-18.2-17.8l-12.5-57.1a196.54,196.54,0,0,1-44-25.5L68.44,425.9a22.83,22.83,0,0,1-24.51-6.8,262.41,262.41,0,0,1-22.11-31.3l-4.68-8.1A249.41,249.41,0,0,1,1.36,345.4c-3.24-8.6-.51-18.3,6.35-24.6L51,281.4a194,194,0,0,1,0-50.8L7.71,191.2c-6.86-6.3-9.59-15.9-6.35-24.6a250.6,250.6,0,0,1,15.78-34.3l4.67-8.1A259.06,259.06,0,0,1,43.93,93a22.71,22.71,0,0,1,24.51-6.81L124.1,103.9a192.31,192.31,0,0,1,44-25.47l12.5-57.1A22.69,22.69,0,0,1,198.8,3.51a259.06,259.06,0,0,1,85,0A22.69,22.69,0,0,1,302,21.33l12.5,57.1c14.9,6.53,30.6,15.13,44,25.47l55.7-17.76A22.76,22.76,0,0,1,438.7,93a258.9,258.9,0,0,1,22.1,31.25l4.7,8.1a253.86,253.86,0,0,1,15.7,34.3ZM241.3,336c44.2,0,80-35.8,80-80.9,0-43.3-35.8-80-80-80s-80,36.7-80,80C161.3,300.2,197.1,336,241.3,336Z" class="cls-1"/></g></g></svg>